<svg xmlns="http://www.w3.org/2000/svg" viewBox="0 0 197.89 414.46"><defs><style>.cls-1{fill:none;stroke:#fff;stroke-linecap:round;stroke-linejoin:round;stroke-width:3px;}</style></defs><title>Asset 1</title><g id="Layer_2" data-name="Layer 2"><g id="Layer_1-2" data-name="Layer 1"><path class="cls-1" d="M24.71,1.5,62.52,41.28,117,32.55l49.17,54.5L166,152.5l30.38,77.27L169.8,295.9l-49.71,42.2-10,27.19L77,393.92,34.29,413,2.7,392.68,1.5,29.77,12.56,15.82ZM53.92,32.24,39.83,33.33m0,0L12.56,15.82m-3,70.68L1.55,44M67.91,58.48,87.48,37.27m78.58,84.25-13.87-17.91-17.7-29.94S95.38,36.42,94.54,36.14M9.57,86.5,39.83,33.33,67.91,58.48,9.57,86.5l5,32.83L99,104.58l36.18-30.27m0,0L67.91,58.48,14.58,119.33,1.79,116.55M135.17,74.31l15.33-4.58M67.91,58.48,99,104.58l53.5-.73m13.61,0V95.6m-3-11.91-10.6,20.16m13.57,20.7L99,104.58l40.64,101.28L166,138.62M1.63,133.37l13-14,43.76,50L99,104.58m-97.07,52,14.79,6.65c0-1.66-2.13-43.85-2.13-43.85M1.88,179.42l14.83-16.24,41.63,6.14,81.29,36.54L170.26,193l12.42,2L178,183M170.26,193l1.7-25.31M2.12,216.93l25.31-33.88L2,191m14.67-27.83,10.72,19.87,30.91-13.73L86,224.24,27.43,183.05l7.88,69.78L86,224.24l53.63-18.38L164,228.24M2.19,237.61l33.12,15.22m-33,34.42,8.09-4.95,6.07-2.47L3.17,255.08m16.93-9.24-3.59,34,34.54,10.35M170.26,193,164,228.24l32.35,1.53M86,224.24l14.23,12.16,39.4-30.54M2.41,305l14.1-25.16M2.41,305l12,61.24,36.63-76.05Zm181.28-43.61L164,228.24l-63.81,8.16L35.31,252.83l15.74,37.35,49.18-53.78,26.56,57.41-22.7,51.25-53-54.88,75.74,3.63m9,11.41,28.26-77-37.25,65.57Zm8.54,12.31-2.46,2.09m20.95-17.78-27,3.38m-121.36,61,21.39,19.89,15.24-95.94m84.73,15-31.69,39.84M14.42,366.23,2.67,382.39l0,10.29,5.78,3.71,27.33-10.27L32,411.48l2.3,1.48,2.78-1.24m78-60-11-6.7L35.81,386.12m0,0,19.13,17.63m48.85-53.34L98,375.8"/></g></g></svg>