<svg xmlns="http://www.w3.org/2000/svg" viewBox="0 0 197.89 414.46"><defs><style>.cls-1{fill:none;stroke:#fff;stroke-linecap:round;stroke-linejoin:round;stroke-width:3px;}</style></defs><title>Asset 2</title><g id="Layer_2" data-name="Layer 2"><g id="Layer_1-2" data-name="Layer 1"><path class="cls-1" d="M185.34,15.82l11,14-1.2,362.91L163.6,413l-42.68-19L87.78,365.29l-10-27.19L28.09,295.9,1.5,229.77,31.88,152.5l-.11-65.45,49.17-54.5,54.44,8.73L173.18,1.5ZM158.07,33.33,144,32.24m41.37-16.42L158.07,33.33M196.35,44l-8,42.48M110.41,37.27,130,58.48M103.36,36.14c-.85.28-40,37.53-40,37.53L45.7,103.61,31.83,121.52M62.72,74.31,98.9,104.58l84.41,14.75,5-32.83L130,58.48l28.09-25.15L188.32,86.5m7.79,30.05-12.8,2.78L130,58.48,62.72,74.31M47.39,69.73l15.33,4.58M45.4,103.85l53.5.73L130,58.48M31.78,95.6l0,8.27m13.6,0L34.8,83.69m-2.94,54.93,26.41,67.24L98.9,104.58l-67.07,20m67.07-20,40.65,64.74,43.76-50,13,14m-13-14s-2.13,42.19-2.13,43.85L196,156.53M19.88,183,15.21,194.9l12.42-2,30.64,12.91,81.28-36.54,41.63-6.14L196,179.42M25.93,167.64,27.63,193M195.86,191l-25.4-8,25.31,33.88M33.85,228.24l24.42-22.38,53.62,18.38,50.7,28.59,7.87-69.78-58.57,41.19,27.66-54.92,30.91,13.73,10.72-19.87m-18.59,89.65,33.11-15.22m-1,17.47-13.34,24.75,6.07,2.47,8.08,4.95m-48.7,2.93,34.55-10.35-3.6-34M1.5,229.77l32.35-1.53L27.63,193m30.64,12.91L97.66,236.4l14.23-12.16m69.5,55.59L195.48,305m-48.64-14.81,36.63,76.05,12-61.24Zm-75.73,3.63,75.73-3.63-53,54.88-22.7-51.25L97.66,236.4l49.18,53.78,15.75-37.35L97.66,236.4l-63.81-8.16L14.21,261.38m56.9,32.43L33.85,228.24l28.27,77ZM56,319.62l-2.46-2.09m8.55-12.31-27-3.38m111.75-11.66,15.25,95.94,21.38-19.89M93.81,345.06,62.12,305.22m98.7,106.5L163.6,413l2.31-1.48-3.82-25.36,27.33,10.27,5.77-3.71,0-10.29-11.75-16.16m-21.38,19.89L93.81,345.06l-11,6.7m60.15,52,19.13-17.63M99.94,375.8,94.1,350.41"/></g></g></svg>